PathFileType	4	(X/Y/Z)	/Users/itak/Documents/Research/Walk-IL/dataset/trc/00078_00006.trc
DataRate	CameraRate	NumFrames	NumMarkers	Units	OrigDataRate	OrigDataStartFrame	OrigNumFrames
100.000000	100.000000	4	53	mm	100.000000	381	611
Frame#	Time	RPSI			LPSI			L3			STRN			T10			C7			CLAV			RBAK			LBAK			LSHO			LUPA			LAEL			LAOL			LWTS			LWPS			LFRA			LIFD			LHPS			LHTS			RSHO			RUPA			RAEL			RAOL			RWTS			RWPS			RFRA			RIFD			RHTS			RHPS			RBHD			LFHD			RFHD			LBHD			LHIP			RHIP			RASI			LASI			LKNE			LTHI			LANK			LTIP			LTOE			LMT1			LMT5			LHEE			RKNE			RTHI			RANK			RTIP			RTOE			RMT1			RMT5			RHEE			
		X1	Y1	Z1	X2	Y2	Z2	X3	Y3	Z3	X4	Y4	Z4	X5	Y5	Z5	X6	Y6	Z6	X7	Y7	Z7	X8	Y8	Z8	X9	Y9	Z9	X10	Y10	Z10	X11	Y11	Z11	X12	Y12	Z12	X13	Y13	Z13	X14	Y14	Z14	X15	Y15	Z15	X16	Y16	Z16	X17	Y17	Z17	X18	Y18	Z18	X19	Y19	Z19	X20	Y20	Z20	X21	Y21	Z21	X22	Y22	Z22	X23	Y23	Z23	X24	Y24	Z24	X25	Y25	Z25	X26	Y26	Z26	X27	Y27	Z27	X28	Y28	Z28	X29	Y29	Z29	X30	Y30	Z30	X31	Y31	Z31	X32	Y32	Z32	X33	Y33	Z33	X34	Y34	Z34	X35	Y35	Z35	X36	Y36	Z36	X37	Y37	Z37	X38	Y38	Z38	X39	Y39	Z39	X40	Y40	Z40	X41	Y41	Z41	X42	Y42	Z42	X43	Y43	Z43	X44	Y44	Z44	X45	Y45	Z45	X46	Y46	Z46	X47	Y47	Z47	X48	Y48	Z48	X49	Y49	Z49	X50	Y50	Z50	X51	Y51	Z51	X52	Y52	Z52	X53	Y53	Z53	

382	3.81	-1.464365363121033	1016.450927734375	196.2287902832031	-123.6123428344727	998.4951782226562	71.68556976318359	-64.30124664306641	1068.599487304688	132.8871612548828	133.8323211669922	1262.749633789062	-32.3698844909668	-69.58075714111328	1204.353149414062	143.8650054931641	-10.66956424713135	1468.657592773438	109.4221801757812	114.7793045043945	1377.572143554688	-11.27938938140869	-15.25621128082275	1328.85009765625	204.3811187744141	-98.34309387207031	1437.555908203125	52.87315368652344	-73.98045349121094	1442.857177734375	-69.74777221679688	-156.5996704101562	1326.792724609375	-109.5953979492188	-193.7760772705078	1117.642944335938	-135.0791320800781	-170.6888580322266	1099.711791992188	-30.63774681091309	-133.6040496826172	863.7785034179688	-167.9835662841797	-218.2030487060547	867.124755859375	-156.2133941650391	-207.2383728027344	1009.320373535156	-154.6400451660156	-148.1491088867188	675.5781860351562	-162.9866333007812	-211.1428680419922	784.237060546875	-177.411376953125	-140.7084045410156	778.6978149414062	-187.046630859375	148.7744140625	1425.039306640625	195.7470397949219	181.3814086914062	1357.272338867188	251.1833801269531	200.9744873046875	1094.412231445312	300.6976928710938	155.5385894775391	1066.943359375	215.6150054931641	315.2428894042969	855.0905151367188	177.8309478759766	298.7943420410156	837.3975830078125	261.4198913574219	225.3601226806641	1016.349792480469	298.1798400878906	334.6371459960938	669.0485229492188	160.9034576416016	347.0229797363281	759.4603271484375	160.8448181152344	340.9714660644531	754.7014770507812	237.724365234375	16.71501159667969	1663.895751953125	29.27586936950684	212.9725494384766	1636.582641601562	-54.13937377929688	107.2194976806641	1641.123901367188	-122.414436340332	134.7924652099609	1648.88037109375	97.80364227294922	-104.3281173706055	941.826904296875	-68.75286865234375	100.4853973388672	949.6548461914062	209.4926605224609	180.7342681884766	963.0387573242188	113.3493270874023	15.8704891204834	956.106689453125	-96.22390747070312	107.3401489257812	527.4833984375	-187.4840393066406	10.15252780914307	641.9063110351562	-162.8814086914062	147.0606994628906	54.25720977783203	-205.5935974121094	112.1553649902344	278.792724609375	-199.9146728515625	283.2395935058594	123.0291290283203	-336.8575439453125	290.4920043945312	103.3465881347656	-269.5472717285156	188.2942199707031	76.61566162109375	-302.8022766113281	167.9261932373047	43.86075210571289	-117.0359954833984	109.5627822875977	505.6302795410156	167.9801940917969	156.4745178222656	774.2293701171875	167.7719879150391	-22.02215385437012	41.32140350341797	265.0179138183594	82.02229309082031	385.0948181152344	195.8777618408203	111.1108093261719	35.60057067871094	89.79769134521484	39.50724411010742	43.88714981079102	102.6814651489258	80.44780731201172	40.4586067199707	192.7578735351562	-94.50198364257812	47.97426605224609	254.1131591796875	
383	3.82	5.402405738830566	1014.849487304688	190.9186553955078	-117.0940170288086	996.4613647460938	66.66476440429688	-57.68655014038086	1066.68310546875	127.6422119140625	139.03173828125	1261.065795898438	-38.7264404296875	-63.20883560180664	1202.359985351562	138.6938018798828	-4.863891124725342	1466.8193359375	103.9481353759766	119.9382705688477	1375.900390625	-17.64876365661621	-8.663094520568848	1327.022583007812	198.9684143066406	-92.85628509521484	1435.499877929688	47.9495849609375	-69.41419982910156	1440.794799804688	-74.79808807373047	-152.2339782714844	1324.654541015625	-113.9171447753906	-189.7135620117188	1115.528686523438	-138.7762298583984	-165.52880859375	1097.561645507812	-34.56500625610352	-130.1632995605469	861.6049194335938	-172.0238952636719	-214.6894836425781	865.0291137695312	-159.3435821533203	-203.4910736083984	1007.233947753906	-158.0496978759766	-144.9512023925781	673.35595703125	-166.3224792480469	-207.9478454589844	782.0895385742188	-180.4275817871094	-137.6372528076172	776.4373168945312	-190.6969146728516	155.1886138916016	1423.417846679688	189.2035369873047	188.3660888671875	1355.559692382812	244.3121490478516	209.7332000732422	1092.5751953125	292.8490905761719	163.2430725097656	1065.15283203125	208.4403533935547	324.0731201171875	854.5621337890625	167.5217895507812	308.7241821289062	836.30126953125	251.2249298095703	234.6285400390625	1014.626525878906	289.6859436035156	344.5686340332031	668.761962890625	149.3649291992188	356.3025207519531	759.2538452148438	149.6492614746094	351.2019653320312	754.039794921875	226.5807189941406	21.94620513916016	1662.151000976562	23.29220581054688	217.9099731445312	1634.869262695312	-60.76270294189453	111.9645843505859	1639.377319335938	-128.7011566162109	140.2040405273438	1647.18115234375	91.43126678466797	-97.78555297851562	939.749267578125	-74.14742279052734	107.6425628662109	948.4407958984375	203.7132720947266	187.3899536132812	961.5390625	107.0478591918945	21.77046394348145	954.1895751953125	-102.0002517700195	111.7981414794922	524.6978149414062	-189.8596801757812	14.19924163818359	638.1243896484375	-165.5685119628906	161.7903747558594	54.57027816772461	-221.9103393554688	121.5616607666016	278.2983703613281	-209.2262268066406	297.2537536621094	129.7245330810547	-350.6277770996094	304.4887084960938	108.4655990600586	-283.7160949707031	203.1251373291016	80.30542755126953	-318.3063659667969	182.1562957763672	42.27076721191406	-133.5594940185547	114.0485992431641	504.4429931640625	163.8790435791016	162.565185546875	772.6958618164062	162.2398681640625	-21.98706436157227	41.78388214111328	264.8033752441406	85.49282073974609	384.2077941894531	192.8660736083984	111.1315002441406	35.44260406494141	89.67642974853516	39.60837173461914	43.83029937744141	102.5795669555664	80.51828765869141	40.46570587158203	192.6226654052734	-94.45675659179688	48.84938049316406	253.9049682617188	
384	3.83	12.24508666992188	1013.212768554688	185.4191284179688	-110.5848541259766	994.3941650390625	61.51322555541992	-51.07087707519531	1064.777099609375	122.2508850097656	144.1947937011719	1259.366943359375	-45.20460510253906	-56.83746337890625	1200.326416015625	133.3726348876953	0.8741967082023621	1464.956420898438	98.35144805908203	125.0486297607422	1374.213623046875	-24.15572357177734	-2.117129802703857	1325.164306640625	193.4339294433594	-87.41835021972656	1433.395263671875	42.90918731689453	-64.93890380859375	1438.670776367188	-79.93798828125	-147.8954467773438	1322.451782226562	-118.3603439331055	-185.6174621582031	1113.344360351562	-142.6481628417969	-160.3597412109375	1095.329223632812	-38.69333267211914	-126.5872650146484	859.3748168945312	-176.2359619140625	-211.0608978271484	862.8527221679688	-162.6734771728516	-199.6750640869141	1005.070434570312	-161.6439056396484	-141.5349426269531	671.1018676757812	-169.9130706787109	-204.557861328125	779.8729248046875	-183.6575469970703	-134.3726348876953	774.1452026367188	-194.5563201904297	161.5542755126953	1421.772827148438	182.5276794433594	195.2739715576172	1353.811279296875	237.3015289306641	218.2956390380859	1090.715209960938	284.874755859375	170.7689666748047	1063.271240234375	201.1413269042969	332.6788940429688	854.0223999023438	157.1167602539062	318.3571472167969	835.169189453125	240.8929138183594	243.6684722900391	1012.868713378906	281.0733337402344	354.2474670410156	668.4835815429688	137.6534271240234	365.346923828125	759.045654296875	138.3323211669922	361.1186828613281	753.3441772460938	215.3010559082031	27.06708335876465	1660.375	17.20790672302246	222.7517547607422	1633.197998046875	-67.47505950927734	116.6155548095703	1637.656127929688	-135.0792694091797	145.5163879394531	1645.4736328125	84.96509552001953	-91.25177001953125	937.645751953125	-79.71486663818359	114.699462890625	947.158203125	197.8617858886719	194.0107574462891	959.98388671875	100.6677551269531	27.65734672546387	952.2479858398438	-107.9225997924805	116.3953857421875	522.1195068359375	-192.6402282714844	18.53876113891602	634.5599975585938	-168.4204864501953	175.2185363769531	55.11164093017578	-236.8002166748047	130.2893524169922	277.9283752441406	-218.0017852783203	309.8063354492188	135.757568359375	-363.3480834960938	317.1236877441406	113.1816940307617	-296.8147888183594	216.4795837402344	83.74758148193359	-332.4760131835938	195.291015625	41.18565368652344	-148.6748657226562	118.7129440307617	503.2095336914062	159.5897064208984	168.6546325683594	771.1111450195312	156.6198272705078	-21.90398597717285	42.35011291503906	264.5794372558594	89.11274719238281	383.2873840332031	189.6852569580078	111.1649551391602	35.30451202392578	89.56953430175781	39.73092269897461	43.78340530395508	102.4777603149414	80.60816192626953	40.47715759277344	192.4838409423828	-94.38678741455078	49.8858642578125	253.7003936767578	
385	3.84	19.08219528198242	1011.544372558594	179.6915130615234	-104.0923461914062	992.3391723632812	56.22599411010742	-44.45288467407227	1062.915771484375	116.7287902832031	149.3293762207031	1257.681030273438	-51.80836868286133	-50.45696640014648	1198.289428710938	127.9078826904297	6.54744291305542	1463.097412109375	92.62307739257812	130.1121826171875	1372.537109375	-30.80131149291992	4.39052152633667	1323.306762695312	187.7774200439453	-82.02616119384766	1431.271362304688	37.74839019775391	-60.5425910949707	1436.514526367188	-85.17767333984375	-143.5753631591797	1320.209838867188	-122.9259185791016	-181.4739227294922	1111.114379882812	-146.6966247558594	-155.1735992431641	1093.056640625	-43.0019645690918	-122.8645858764648	857.1157836914062	-180.6210174560547	-207.3070983886719	860.625	-166.2049255371094	-195.7811431884766	1002.8505859375	-165.4269866943359	-137.9189300537109	668.8309326171875	-173.7664642333984	-200.9976196289062	777.6173706054688	-187.1121826171875	-130.9209442138672	771.834716796875	-198.6271209716797	167.8820648193359	1420.13232421875	175.7127685546875	202.1158905029297	1352.055908203125	230.1433715820312	226.6585388183594	1088.859741210938	276.7677917480469	178.2055358886719	1061.364013671875	193.6020965576172	341.0540161132812	853.4814453125	146.6273651123047	327.6833801269531	834.0225219726562	230.4408416748047	252.4673309326172	1011.106567382812	272.3469543457031	363.6425476074219	668.2239379882812	125.7985534667969	374.1396789550781	758.8392333984375	126.9152679443359	370.695556640625	752.6256713867188	203.9076232910156	32.07980346679688	1658.596313476562	11.0156421661377	227.5008850097656	1631.594360351562	-74.28484344482422	121.1715469360352	1635.981323242188	-141.5553894042969	150.7339935302734	1643.7861328125	78.39960479736328	-84.81918334960938	935.5169677734375	-85.37356567382812	121.6588439941406	945.8031616210938	191.9253997802734	200.6013946533203	958.386962890625	94.21759796142578	33.54126358032227	950.3165283203125	-113.9797668457031	121.1239013671875	519.7830810546875	-195.9316558837891	23.19756698608398	631.306640625	-171.5556640625	187.3386383056641	55.63923645019531	-250.0832824707031	138.3786926269531	277.5359191894531	-226.2170104980469	320.8423156738281	140.8489837646484	-375.0117492675781	328.3839111328125	117.2464447021484	-308.829345703125	228.3063659667969	86.65338134765625	-345.1958618164062	207.3914947509766	40.42886352539062	-162.1869049072266	123.5323944091797	501.9364013671875	155.1221466064453	174.7447204589844	769.4908447265625	150.9139099121094	-21.77272605895996	43.03832244873047	264.3466491699219	92.85430145263672	382.3475341796875	186.3375091552734	111.2098617553711	35.18769836425781	89.47629547119141	39.87603759765625	43.74658966064453	102.3698043823242	80.71355438232422	40.49773788452148	192.3387756347656	-94.28499603271484	51.10848236083984	253.4960021972656	
